<mxfile host="app.diagrams.net" agent="Mozilla/5.0 (Windows NT 10.0; Win64; x64) AppleWebKit/537.36 (KHTML, like Gecko) Chrome/133.0.0.0 Safari/537.36 OPR/118.0.0.0" version="26.2.9">
  <diagram name="PÃ¡gina-1" id="UMnJ2JcFqk0zIy_4Vqxa">
    <mxGraphModel dx="1384" dy="758" grid="1" gridSize="10" guides="1" tooltips="1" connect="1" arrows="1" fold="1" page="1" pageScale="1" pageWidth="827" pageHeight="1169" math="0" shadow="0">
      <root>
        <mxCell id="0" />
        <mxCell id="1" parent="0" />
        <mxCell id="cT-pWzFcNSx7i06JMVmD-5" style="edgeStyle=orthogonalEdgeStyle;rounded=0;orthogonalLoop=1;jettySize=auto;html=1;" edge="1" parent="1" source="cT-pWzFcNSx7i06JMVmD-2" target="cT-pWzFcNSx7i06JMVmD-3">
          <mxGeometry relative="1" as="geometry" />
        </mxCell>
        <mxCell id="cT-pWzFcNSx7i06JMVmD-9" style="edgeStyle=orthogonalEdgeStyle;rounded=0;orthogonalLoop=1;jettySize=auto;html=1;" edge="1" parent="1" source="cT-pWzFcNSx7i06JMVmD-2" target="cT-pWzFcNSx7i06JMVmD-7">
          <mxGeometry relative="1" as="geometry" />
        </mxCell>
        <mxCell id="cT-pWzFcNSx7i06JMVmD-2" value="" style="fontColor=#0066CC;verticalAlign=top;verticalLabelPosition=bottom;labelPosition=center;align=center;html=1;outlineConnect=0;fillColor=#CCCCCC;strokeColor=#6881B3;gradientColor=none;gradientDirection=north;strokeWidth=2;shape=mxgraph.networks.users;" vertex="1" parent="1">
          <mxGeometry x="40" y="80" width="90" height="100" as="geometry" />
        </mxCell>
        <mxCell id="cT-pWzFcNSx7i06JMVmD-15" style="edgeStyle=orthogonalEdgeStyle;rounded=0;orthogonalLoop=1;jettySize=auto;html=1;" edge="1" parent="1" source="cT-pWzFcNSx7i06JMVmD-3" target="cT-pWzFcNSx7i06JMVmD-14">
          <mxGeometry relative="1" as="geometry" />
        </mxCell>
        <mxCell id="cT-pWzFcNSx7i06JMVmD-3" value="" style="strokeColor=#dddddd;shadow=1;strokeWidth=1;rounded=1;absoluteArcSize=1;arcSize=2;" vertex="1" parent="1">
          <mxGeometry x="30" y="230" width="110" height="60" as="geometry" />
        </mxCell>
        <mxCell id="cT-pWzFcNSx7i06JMVmD-4" value="Cloud&#xa;CDN" style="editableCssRules=.*;html=1;fontColor=#999999;shape=image;verticalLabelPosition=middle;verticalAlign=middle;labelPosition=right;align=left;spacingLeft=20;part=1;points=[];imageAspect=0;image=data:image/svg+xml,PHN2ZyB4bWxucz0iaHR0cDovL3d3dy53My5vcmcvMjAwMC9zdmciIHhtbG5zOnY9Imh0dHBzOi8vdmVjdGEuaW8vbmFubyIgd2lkdGg9IjIwIiBoZWlnaHQ9IjIwIiB2aWV3Qm94PSIwIDAgMjAgMjAiPiYjeGE7CTxzdHlsZSB0eXBlPSJ0ZXh0L2NzcyI+JiN4YTsJLnN0MHtmaWxsOiM0Mjg1ZjQ7fSYjeGE7CS5zdDF7ZmlsbDojNjY5ZGY2O30mI3hhOwkuc3Qye2ZpbGw6I2FlY2JmYTt9JiN4YTsJPC9zdHlsZT4mI3hhOwk8cGF0aCBjbGFzcz0ic3QxIiBkPSJNMTMuMTMgNS42M1YzLjIxTDEwIDB2Mi40MXptMy43NSA3LjVMMjAgMTBoLTIuNWwtMy4xMiAzLjEzem0tMTMuNzUgMEwwIDEwaDIuNWwzLjEzIDMuMTN6bTEwIDEuMjV2Mi40MUwxMCAyMHYtMi40MXoiIGZpbGwtcnVsZT0iZXZlbm9kZCIvPiYjeGE7CTxwYXRoIGNsYXNzPSJzdDIiIGQ9Ik02Ljg4IDUuNjNMMTAgMi40MVYwTDYuODggMy4yMXpNMTcuNSAxMEgyMGwtMy4xMi0zLjEyaC0yLjV6bS0xNSAwSDBsMy4xMy0zLjEyaDIuNXptNC4zOCA0LjM4TDEwIDE3LjU5VjIwbC0zLjEyLTMuMjF6bTAtNy41aDYuMjV2Ni4yNUg2Ljg4eiIgZmlsbC1ydWxlPSJldmVub2RkIi8+JiN4YTsJPHBhdGggY2xhc3M9InN0MSIgZD0iTTYuODggMTMuMTNsNi4yNS02LjI1djYuMjV6IiBmaWxsLXJ1bGU9ImV2ZW5vZGQiLz4mI3hhOwk8cGF0aCBjbGFzcz0ic3QwIiBkPSJNMTAgMTBsMy4xMy0zLjEydjYuMjV6IiBmaWxsLXJ1bGU9ImV2ZW5vZGQiLz4mI3hhOzwvc3ZnPg==;" vertex="1" parent="cT-pWzFcNSx7i06JMVmD-3">
          <mxGeometry width="30" height="30" relative="1" as="geometry">
            <mxPoint x="15" y="15" as="offset" />
          </mxGeometry>
        </mxCell>
        <mxCell id="cT-pWzFcNSx7i06JMVmD-11" style="edgeStyle=orthogonalEdgeStyle;rounded=0;orthogonalLoop=1;jettySize=auto;html=1;" edge="1" parent="1" source="cT-pWzFcNSx7i06JMVmD-7" target="cT-pWzFcNSx7i06JMVmD-10">
          <mxGeometry relative="1" as="geometry" />
        </mxCell>
        <mxCell id="cT-pWzFcNSx7i06JMVmD-21" style="edgeStyle=orthogonalEdgeStyle;rounded=0;orthogonalLoop=1;jettySize=auto;html=1;" edge="1" parent="1" source="cT-pWzFcNSx7i06JMVmD-7" target="cT-pWzFcNSx7i06JMVmD-20">
          <mxGeometry relative="1" as="geometry" />
        </mxCell>
        <mxCell id="cT-pWzFcNSx7i06JMVmD-7" value="" style="strokeColor=#dddddd;shadow=1;strokeWidth=1;rounded=1;absoluteArcSize=1;arcSize=2;" vertex="1" parent="1">
          <mxGeometry x="240" y="108" width="120" height="44" as="geometry" />
        </mxCell>
        <mxCell id="cT-pWzFcNSx7i06JMVmD-8" value="CDN&#xa;Interconnect" style="sketch=0;dashed=0;connectable=0;html=1;fillColor=#757575;strokeColor=none;shape=mxgraph.gcp2.google_network_edge_cache;part=1;labelPosition=right;verticalLabelPosition=middle;align=left;verticalAlign=middle;spacingLeft=5;fontSize=12;" vertex="1" parent="cT-pWzFcNSx7i06JMVmD-7">
          <mxGeometry y="0.5" width="32" height="32" relative="1" as="geometry">
            <mxPoint x="5" y="-16" as="offset" />
          </mxGeometry>
        </mxCell>
        <mxCell id="cT-pWzFcNSx7i06JMVmD-13" style="edgeStyle=orthogonalEdgeStyle;rounded=0;orthogonalLoop=1;jettySize=auto;html=1;" edge="1" parent="1" source="cT-pWzFcNSx7i06JMVmD-10" target="cT-pWzFcNSx7i06JMVmD-12">
          <mxGeometry relative="1" as="geometry" />
        </mxCell>
        <mxCell id="cT-pWzFcNSx7i06JMVmD-10" value="" style="sketch=0;outlineConnect=0;fontColor=#232F3E;gradientColor=none;fillColor=#8C4FFF;strokeColor=none;dashed=0;verticalLabelPosition=bottom;verticalAlign=top;align=center;html=1;fontSize=12;fontStyle=0;aspect=fixed;pointerEvents=1;shape=mxgraph.aws4.application_load_balancer;" vertex="1" parent="1">
          <mxGeometry x="261" y="221" width="78" height="78" as="geometry" />
        </mxCell>
        <mxCell id="cT-pWzFcNSx7i06JMVmD-17" style="edgeStyle=orthogonalEdgeStyle;rounded=0;orthogonalLoop=1;jettySize=auto;html=1;entryX=0.5;entryY=0;entryDx=0;entryDy=0;" edge="1" parent="1" source="cT-pWzFcNSx7i06JMVmD-12" target="cT-pWzFcNSx7i06JMVmD-16">
          <mxGeometry relative="1" as="geometry" />
        </mxCell>
        <mxCell id="cT-pWzFcNSx7i06JMVmD-12" value="" style="sketch=0;points=[[0,0,0],[0.25,0,0],[0.5,0,0],[0.75,0,0],[1,0,0],[0,1,0],[0.25,1,0],[0.5,1,0],[0.75,1,0],[1,1,0],[0,0.25,0],[0,0.5,0],[0,0.75,0],[1,0.25,0],[1,0.5,0],[1,0.75,0]];points=[[0,0,0],[0.25,0,0],[0.5,0,0],[0.75,0,0],[1,0,0],[0,1,0],[0.25,1,0],[0.5,1,0],[0.75,1,0],[1,1,0],[0,0.25,0],[0,0.5,0],[0,0.75,0],[1,0.25,0],[1,0.5,0],[1,0.75,0]];outlineConnect=0;fontColor=#232F3E;fillColor=#E7157B;strokeColor=#ffffff;dashed=0;verticalLabelPosition=bottom;verticalAlign=top;align=center;html=1;fontSize=12;fontStyle=0;aspect=fixed;shape=mxgraph.aws4.resourceIcon;resIcon=mxgraph.aws4.systems_manager;" vertex="1" parent="1">
          <mxGeometry x="261" y="350" width="78" height="78" as="geometry" />
        </mxCell>
        <mxCell id="cT-pWzFcNSx7i06JMVmD-18" style="edgeStyle=orthogonalEdgeStyle;rounded=0;orthogonalLoop=1;jettySize=auto;html=1;entryX=0;entryY=0.5;entryDx=0;entryDy=0;" edge="1" parent="1" source="cT-pWzFcNSx7i06JMVmD-14" target="cT-pWzFcNSx7i06JMVmD-16">
          <mxGeometry relative="1" as="geometry" />
        </mxCell>
        <mxCell id="cT-pWzFcNSx7i06JMVmD-14" value="" style="verticalLabelPosition=bottom;html=1;verticalAlign=top;align=center;strokeColor=none;fillColor=#00BEF2;shape=mxgraph.azure.queue_generic;pointerEvents=1;" vertex="1" parent="1">
          <mxGeometry x="60" y="502.5" width="50" height="15" as="geometry" />
        </mxCell>
        <mxCell id="cT-pWzFcNSx7i06JMVmD-16" value="" style="shape=datastore;whiteSpace=wrap;html=1;" vertex="1" parent="1">
          <mxGeometry x="270" y="480" width="60" height="60" as="geometry" />
        </mxCell>
        <mxCell id="cT-pWzFcNSx7i06JMVmD-19" value="Cloud Logs" style="shape=rect;fillColor=#009D9A;aspect=fixed;resizable=0;labelPosition=center;verticalLabelPosition=bottom;align=center;verticalAlign=top;strokeColor=none;fontSize=14;" vertex="1" parent="1">
          <mxGeometry x="480" y="106" width="48" height="48" as="geometry" />
        </mxCell>
        <mxCell id="cT-pWzFcNSx7i06JMVmD-20" value="" style="fillColor=#ffffff;strokeColor=none;dashed=0;outlineConnect=0;html=1;labelPosition=center;verticalLabelPosition=bottom;verticalAlign=top;part=1;movable=0;resizable=0;rotatable=0;shape=mxgraph.ibm_cloud.ibm-cloud--logging" vertex="1" parent="cT-pWzFcNSx7i06JMVmD-19">
          <mxGeometry width="24" height="24" relative="1" as="geometry">
            <mxPoint x="12" y="12" as="offset" />
          </mxGeometry>
        </mxCell>
        <mxCell id="cT-pWzFcNSx7i06JMVmD-27" style="edgeStyle=orthogonalEdgeStyle;rounded=0;orthogonalLoop=1;jettySize=auto;html=1;" edge="1" parent="1" source="cT-pWzFcNSx7i06JMVmD-22" target="cT-pWzFcNSx7i06JMVmD-25">
          <mxGeometry relative="1" as="geometry" />
        </mxCell>
        <mxCell id="cT-pWzFcNSx7i06JMVmD-22" value="" style="points=[];aspect=fixed;html=1;align=center;shadow=0;dashed=0;fillColor=#FF6A00;strokeColor=none;shape=mxgraph.alibaba_cloud.redis_kvstore;" vertex="1" parent="1">
          <mxGeometry x="478" y="240" width="52.5" height="41.4" as="geometry" />
        </mxCell>
        <mxCell id="cT-pWzFcNSx7i06JMVmD-23" style="edgeStyle=orthogonalEdgeStyle;rounded=0;orthogonalLoop=1;jettySize=auto;html=1;entryX=0.495;entryY=0.024;entryDx=0;entryDy=0;entryPerimeter=0;" edge="1" parent="1" source="cT-pWzFcNSx7i06JMVmD-19" target="cT-pWzFcNSx7i06JMVmD-22">
          <mxGeometry relative="1" as="geometry" />
        </mxCell>
        <mxCell id="cT-pWzFcNSx7i06JMVmD-24" style="edgeStyle=orthogonalEdgeStyle;rounded=0;orthogonalLoop=1;jettySize=auto;html=1;entryX=0.038;entryY=0.483;entryDx=0;entryDy=0;entryPerimeter=0;" edge="1" parent="1" source="cT-pWzFcNSx7i06JMVmD-10" target="cT-pWzFcNSx7i06JMVmD-22">
          <mxGeometry relative="1" as="geometry" />
        </mxCell>
        <mxCell id="cT-pWzFcNSx7i06JMVmD-25" value="" style="shape=mxgraph.signs.travel.ticket_machine;html=1;pointerEvents=1;fillColor=#000000;strokeColor=none;verticalLabelPosition=bottom;verticalAlign=top;align=center;" vertex="1" parent="1">
          <mxGeometry x="460" y="339" width="88" height="100" as="geometry" />
        </mxCell>
        <mxCell id="cT-pWzFcNSx7i06JMVmD-26" style="edgeStyle=orthogonalEdgeStyle;rounded=0;orthogonalLoop=1;jettySize=auto;html=1;entryX=0;entryY=0.5;entryDx=0;entryDy=0;entryPerimeter=0;" edge="1" parent="1" source="cT-pWzFcNSx7i06JMVmD-12" target="cT-pWzFcNSx7i06JMVmD-25">
          <mxGeometry relative="1" as="geometry" />
        </mxCell>
      </root>
    </mxGraphModel>
  </diagram>
</mxfile>
